<mxfile host="app.diagrams.net" modified="2020-08-02T15:53:52.341Z" agent="5.0 (Windows NT 10.0; Win64; x64) AppleWebKit/537.36 (KHTML, like Gecko) Chrome/84.0.4147.105 Safari/537.36" etag="zwhEO-tI2pzOG56nL9XA" version="13.5.8" type="github">
  <diagram id="eVGE4qikF1aToErU-9ug" name="Page-1">
    <mxGraphModel dx="1038" dy="548" grid="1" gridSize="10" guides="1" tooltips="1" connect="1" arrows="1" fold="1" page="1" pageScale="1" pageWidth="827" pageHeight="1169" math="0" shadow="0">
      <root>
        <mxCell id="0" />
        <mxCell id="1" parent="0" />
        <mxCell id="-UK5tiieGl3bSJO5gPrX-1" value="" style="whiteSpace=wrap;html=1;aspect=fixed;" vertex="1" parent="1">
          <mxGeometry x="60" y="20" width="220" height="220" as="geometry" />
        </mxCell>
        <mxCell id="-UK5tiieGl3bSJO5gPrX-2" value="eno1" style="rounded=1;whiteSpace=wrap;html=1;" vertex="1" parent="1">
          <mxGeometry x="240" y="55" width="40" height="30" as="geometry" />
        </mxCell>
        <mxCell id="-UK5tiieGl3bSJO5gPrX-4" value="" style="endArrow=none;html=1;exitX=1;exitY=0.5;exitDx=0;exitDy=0;" edge="1" parent="1" source="-UK5tiieGl3bSJO5gPrX-2">
          <mxGeometry width="50" height="50" relative="1" as="geometry">
            <mxPoint x="220" y="145" as="sourcePoint" />
            <mxPoint x="430" y="70" as="targetPoint" />
          </mxGeometry>
        </mxCell>
        <mxCell id="-UK5tiieGl3bSJO5gPrX-6" value="outside" style="text;html=1;align=center;verticalAlign=middle;resizable=0;points=[];autosize=1;" vertex="1" parent="1">
          <mxGeometry x="320" y="45" width="50" height="20" as="geometry" />
        </mxCell>
        <mxCell id="-UK5tiieGl3bSJO5gPrX-7" value="bridge&lt;br&gt;br0" style="rounded=1;whiteSpace=wrap;html=1;" vertex="1" parent="1">
          <mxGeometry x="110" y="125" width="70" height="60" as="geometry" />
        </mxCell>
        <mxCell id="-UK5tiieGl3bSJO5gPrX-9" value="" style="endArrow=none;html=1;entryX=0;entryY=0.5;entryDx=0;entryDy=0;exitX=1;exitY=0.5;exitDx=0;exitDy=0;" edge="1" parent="1" source="-UK5tiieGl3bSJO5gPrX-7" target="-UK5tiieGl3bSJO5gPrX-2">
          <mxGeometry width="50" height="50" relative="1" as="geometry">
            <mxPoint x="220" y="135" as="sourcePoint" />
            <mxPoint x="270" y="85" as="targetPoint" />
          </mxGeometry>
        </mxCell>
        <mxCell id="-UK5tiieGl3bSJO5gPrX-10" value="&lt;span style=&quot;font-size: 12px ; background-color: rgb(248 , 249 , 250)&quot;&gt;bridge-slave-eno1&lt;/span&gt;" style="edgeLabel;html=1;align=center;verticalAlign=middle;resizable=0;points=[];" vertex="1" connectable="0" parent="-UK5tiieGl3bSJO5gPrX-9">
          <mxGeometry x="-0.2945" y="1" relative="1" as="geometry">
            <mxPoint x="9.48" y="-14.2" as="offset" />
          </mxGeometry>
        </mxCell>
        <mxCell id="-UK5tiieGl3bSJO5gPrX-13" style="edgeStyle=none;rounded=0;orthogonalLoop=1;jettySize=auto;html=1;exitX=0;exitY=1;exitDx=0;exitDy=0;" edge="1" parent="1" source="-UK5tiieGl3bSJO5gPrX-1" target="-UK5tiieGl3bSJO5gPrX-1">
          <mxGeometry relative="1" as="geometry" />
        </mxCell>
      </root>
    </mxGraphModel>
  </diagram>
</mxfile>
